<svg width="16" height="17" viewBox="0 0 16 17" fill="none" xmlns="http://www.w3.org/2000/svg">
<path d="M8.71991 13.22L13.7199 8.22002C13.8131 8.12678 13.8871 8.01609 13.9376 7.89427C13.988 7.77244 14.014 7.64188 14.014 7.51002C14.014 7.37816 13.988 7.24759 13.9376 7.12577C13.8871 7.00394 13.8131 6.89326 13.7199 6.80002C13.6267 6.70678 13.516 6.63282 13.3942 6.58236C13.2723 6.5319 13.1418 6.50592 13.0099 6.50592C12.878 6.50592 12.7475 6.5319 12.6257 6.58236C12.5038 6.63282 12.3931 6.70678 12.2999 6.80002L7.99991 11.1L3.72991 6.80002C3.61404 6.6816 3.47057 6.59383 3.31238 6.54458C3.15419 6.49534 2.98625 6.48617 2.82364 6.5179C2.66103 6.54963 2.50886 6.62126 2.38078 6.72636C2.25271 6.83146 2.15276 6.96673 2.08991 7.12002C2.01239 7.30435 1.99192 7.50769 2.03114 7.70377C2.07036 7.89985 2.16746 8.07968 2.30991 8.22002L7.30991 13.22C7.40287 13.3137 7.51347 13.3881 7.63533 13.4389C7.75719 13.4897 7.8879 13.5158 8.01991 13.5158C8.15192 13.5158 8.28262 13.4897 8.40448 13.4389C8.52634 13.3881 8.63694 13.3137 8.72991 13.22H8.71991Z" fill="#002033" fill-opacity="0.3"/>
</svg>
