<?xml version="1.0" encoding="UTF-8" standalone="no"?>
<svg
   viewBox="0 0 640 512"
   version="1.1"
   id="svg4"
   sodipodi:docname="mug-saucer-solid.svg"
   inkscape:version="1.2.1 (9c6d41e4, 2022-07-14)"
   xmlns:inkscape="http://www.inkscape.org/namespaces/inkscape"
   xmlns:sodipodi="http://sodipodi.sourceforge.net/DTD/sodipodi-0.dtd"
   xmlns="http://www.w3.org/2000/svg"
   xmlns:svg="http://www.w3.org/2000/svg">
  <defs
     id="defs8" />
  <sodipodi:namedview
     id="namedview6"
     pagecolor="#ffffff"
     bordercolor="#000000"
     borderopacity="0.25"
     inkscape:showpageshadow="2"
     inkscape:pageopacity="0.0"
     inkscape:pagecheckerboard="0"
     inkscape:deskcolor="#d1d1d1"
     showgrid="false"
     inkscape:zoom="0.4609375"
     inkscape:cx="318.91525"
     inkscape:cy="260.33898"
     inkscape:window-width="1309"
     inkscape:window-height="726"
     inkscape:window-x="0"
     inkscape:window-y="38"
     inkscape:window-maximized="0"
     inkscape:current-layer="svg4" />
  <!--!Font Awesome Free 6.6.0 by @fontawesome - https://fontawesome.com License - https://fontawesome.com/license/free Copyright 2024 Fonticons, Inc.-->
  <path
     d="M96 64c0-17.7 14.3-32 32-32l320 0 64 0c70.7 0 128 57.3 128 128s-57.3 128-128 128l-32 0c0 53-43 96-96 96l-192 0c-53 0-96-43-96-96L96 64zM480 224l32 0c35.3 0 64-28.7 64-64s-28.7-64-64-64l-32 0 0 128zM32 416l512 0c17.7 0 32 14.3 32 32s-14.3 32-32 32L32 480c-17.7 0-32-14.3-32-32s14.3-32 32-32z"
     id="path2"
     style="fill:#333333" />
</svg>
